<svg width="16" height="16" viewBox="0 0 16 16" fill="none" xmlns="http://www.w3.org/2000/svg">
<g clip-path="url(#clip0_69_5490)">
<path d="M11.3333 0C8.71667 0 6.66667 1.17133 6.66667 2.66667V5.58533C6.06267 5.42533 5.38733 5.33333 4.66667 5.33333C2.05 5.33333 0 6.50467 0 8V13.3333C0 14.8287 2.05 16 4.66667 16C7.28333 16 9.33333 14.8287 9.33333 13.3333V13.0767C9.95533 13.242 10.6367 13.3333 11.3333 13.3333C13.95 13.3333 16 12.162 16 10.6667V2.66667C16 1.17133 13.95 0 11.3333 0ZM15.3333 8C15.3333 9.084 13.5013 10 11.3333 10C10.626 10 9.94267 9.89933 9.33333 9.71733V8C9.33333 7.91267 9.32467 7.82667 9.31133 7.742C9.93667 7.91067 10.6233 8 11.3333 8C13.054 8 14.5247 7.492 15.3333 6.72V8ZM0.666667 9.38667C1.47533 10.1587 2.946 10.6667 4.66667 10.6667C6.38733 10.6667 7.858 10.1587 8.66667 9.38667V10.6667C8.66667 11.7507 6.83467 12.6667 4.66667 12.6667C2.49867 12.6667 0.666667 11.7507 0.666667 10.6667V9.38667ZM11.3333 0.666667C13.5013 0.666667 15.3333 1.58267 15.3333 2.66667C15.3333 3.75067 13.5013 4.66667 11.3333 4.66667C9.16533 4.66667 7.33333 3.75067 7.33333 2.66667C7.33333 1.58267 9.16533 0.666667 11.3333 0.666667ZM7.33333 4.05333C8.142 4.82533 9.61267 5.33333 11.3333 5.33333C13.054 5.33333 14.5247 4.82533 15.3333 4.05333V5.33333C15.3333 6.41733 13.5013 7.33333 11.3333 7.33333C10.4687 7.33333 9.646 7.19133 8.94933 6.92467C8.604 6.466 8.04267 6.078 7.33333 5.79933V4.05333ZM4.66667 6C6.83467 6 8.66667 6.916 8.66667 8C8.66667 9.084 6.83467 10 4.66667 10C2.49867 10 0.666667 9.084 0.666667 8C0.666667 6.916 2.49867 6 4.66667 6ZM4.66667 15.3333C2.49867 15.3333 0.666667 14.4173 0.666667 13.3333V12.0533C1.47533 12.8253 2.946 13.3333 4.66667 13.3333C6.38733 13.3333 7.858 12.8253 8.66667 12.0533V13.3333C8.66667 14.4173 6.83467 15.3333 4.66667 15.3333ZM11.3333 12.6667C10.6287 12.6667 9.94267 12.5673 9.33333 12.3853V10.4107C9.95467 10.576 10.6353 10.666 11.3333 10.666C13.054 10.666 14.5247 10.158 15.3333 9.386V10.666C15.3333 11.75 13.5013 12.6667 11.3333 12.6667Z" fill="#555555"/>
</g>
<defs>
<clipPath id="clip0_69_5490">
<rect width="16" height="16" fill="white"/>
</clipPath>
</defs>
</svg>
