<svg width="22" height="22" viewBox="0 0 22 22" fill="none" xmlns="http://www.w3.org/2000/svg">
<path d="M11.415 16C11.4698 16.0003 11.5242 15.9898 11.5749 15.9691C11.6257 15.9483 11.6718 15.9178 11.7108 15.8792C11.7498 15.8405 11.7808 15.7944 11.8019 15.7436C11.8231 15.6928 11.834 15.6384 11.834 15.5834C11.834 15.5284 11.8231 15.474 11.8019 15.4232C11.7808 15.3724 11.7498 15.3263 11.7108 15.2876L8.30717 11.884C8.07313 11.6497 7.94167 11.332 7.94167 11.0008C7.94167 10.6697 8.07313 10.352 8.30717 10.1177L11.7108 6.71408C11.7496 6.67524 11.7804 6.62913 11.8014 6.57838C11.8225 6.52763 11.8333 6.47323 11.8333 6.4183C11.8333 6.30736 11.7892 6.20096 11.7108 6.12252C11.6323 6.04407 11.5259 6 11.415 6C11.304 6 11.1976 6.04407 11.1192 6.12252L7.71561 9.5261C7.52163 9.71959 7.36772 9.94945 7.26271 10.2025C7.15771 10.4556 7.10365 10.7269 7.10365 11.0008C7.10365 11.2748 7.15771 11.5461 7.26271 11.7992C7.36772 12.0522 7.52163 12.2821 7.71561 12.4756L11.1192 15.8792C11.1581 15.9178 11.2043 15.9483 11.255 15.9691C11.3058 15.9898 11.3601 16.0003 11.415 16Z" fill="#767676"/>
<path d="M15.581 16C15.6358 16.0003 15.6902 15.9898 15.7409 15.9691C15.7917 15.9483 15.8378 15.9178 15.8768 15.8792C15.9158 15.8405 15.9468 15.7944 15.968 15.7436C15.9891 15.6928 16 15.6384 16 15.5834C16 15.5284 15.9891 15.474 15.968 15.4232C15.9468 15.3724 15.9158 15.3263 15.8768 15.2876L11.8816 11.2966C11.8426 11.2579 11.8116 11.2118 11.7904 11.1611C11.7693 11.1103 11.7584 11.0558 11.7584 11.0008C11.7584 10.9459 11.7693 10.8914 11.7904 10.8406C11.8116 10.7899 11.8426 10.7438 11.8816 10.7051L15.8768 6.71408C15.9552 6.63564 15.9993 6.52924 15.9993 6.4183C15.9993 6.30736 15.9552 6.20096 15.8768 6.12252C15.7983 6.04407 15.6919 6 15.581 6C15.47 6 15.3637 6.04407 15.2852 6.12252L11.2942 10.1177C11.0602 10.352 10.9287 10.6697 10.9287 11.0008C10.9287 11.332 11.0602 11.6497 11.2942 11.884L15.2852 15.8792C15.3241 15.9178 15.3703 15.9483 15.4211 15.9691C15.4718 15.9898 15.5262 16.0003 15.581 16Z" fill="#767676"/>
</svg>
