<svg width="29" height="26" viewBox="0 0 29 26" fill="none" xmlns="http://www.w3.org/2000/svg">
<path d="M26.397 8.59267L24.0737 6.26933C23.255 5.45067 22.167 5 21.0097 5H17.333C15.679 5 14.333 6.346 14.333 8V18C14.333 19.654 15.679 21 17.333 21H24.6663C26.3203 21 27.6663 19.654 27.6663 18V11.6567C27.6663 10.4993 27.2157 9.41067 26.397 8.59267ZM25.9257 9.064C26.293 9.43133 26.5723 9.86267 26.7543 10.3333H23.333C22.7817 10.3333 22.333 9.88467 22.333 9.33333V5.912C22.8037 6.094 23.235 6.37333 23.6023 6.74067L25.9257 9.064ZM26.9997 18C26.9997 19.2867 25.953 20.3333 24.6663 20.3333H17.333C16.0463 20.3333 14.9997 19.2867 14.9997 18V8C14.9997 6.71333 16.0463 5.66667 17.333 5.66667H21.0097C21.2323 5.66667 21.4517 5.68667 21.6663 5.72533V9.33333C21.6663 10.252 22.4143 11 23.333 11H26.941C26.9797 11.2147 26.9997 11.434 26.9997 11.6567V18ZM23.6083 14.4333C23.737 14.5647 23.7343 14.776 23.603 14.9047C23.5383 14.968 23.4537 15 23.3697 15C23.283 15 23.197 14.9667 23.1317 14.9L21.455 13.1867C21.4177 13.1493 21.377 13.118 21.333 13.092V18.0007C21.333 18.1847 21.1837 18.334 20.9997 18.334C20.8157 18.334 20.6663 18.1847 20.6663 18.0007V13.0927C20.6223 13.1193 20.5803 13.1513 20.5417 13.19L18.8677 14.9007C18.739 15.0327 18.5283 15.0353 18.3963 14.906C18.265 14.7773 18.2623 14.566 18.391 14.4347L20.0677 12.7213C20.3237 12.4653 20.6583 12.3367 20.993 12.3347C20.995 12.3347 20.997 12.3347 20.999 12.3347C21.001 12.3347 21.003 12.3347 21.005 12.3347C21.3397 12.336 21.6737 12.464 21.9277 12.7187L23.607 14.4347L23.6083 14.4333Z" fill="#767676"/>
<path d="M1 1L0.999999 25" stroke="#DDDDDD" stroke-linecap="round"/>
</svg>
