<svg width="24" height="24" viewBox="0 0 24 24" fill="none" xmlns="http://www.w3.org/2000/svg">
<g clip-path="url(#clip0_196_1663)">
<path d="M23.119 0.881892C22.7605 0.519019 22.3144 0.254747 21.8239 0.114608C21.3335 -0.0255306 20.8151 -0.036799 20.319 0.0818918L4.31901 3.45189C3.39759 3.57826 2.52974 3.95937 1.81321 4.5523C1.09668 5.14524 0.559923 5.92645 0.263385 6.80796C-0.033153 7.68946 -0.0776925 8.63626 0.134782 9.54171C0.347257 10.4472 0.808307 11.2753 1.46601 11.9329L3.18401 13.6499C3.27699 13.7428 3.35074 13.8532 3.40101 13.9747C3.45129 14.0962 3.47711 14.2264 3.47701 14.3579V17.5259C3.47922 17.9713 3.58176 18.4105 3.77701 18.8109L3.76901 18.8179L3.79501 18.8439C4.08802 19.433 4.56659 19.9095 5.15701 20.1999L5.18301 20.2259L5.19001 20.2179C5.59037 20.4131 6.02958 20.5157 6.47501 20.5179H9.64301C9.90806 20.5177 10.1624 20.6227 10.35 20.8099L12.067 22.5269C12.5275 22.9925 13.0757 23.3624 13.6798 23.6152C14.2839 23.868 14.9321 23.9988 15.587 23.9999C16.1328 23.9992 16.6748 23.9101 17.192 23.7359C18.0655 23.4491 18.8414 22.9239 19.4322 22.2196C20.0231 21.5153 20.4054 20.6599 20.536 19.7499L23.911 3.71489C24.0359 3.21453 24.0285 2.69031 23.8897 2.19365C23.7508 1.697 23.4852 1.24496 23.119 0.881892ZM4.60001 12.2379L2.88101 10.5209C2.48073 10.1303 2.20018 9.63354 2.0723 9.08905C1.94441 8.54456 1.97449 7.97489 2.15901 7.44689C2.33791 6.90522 2.66862 6.42632 3.11181 6.06715C3.555 5.70799 4.09202 5.48368 4.65901 5.42089L20.5 2.08589L5.47501 17.1129V14.3579C5.47653 13.9642 5.39997 13.5742 5.24978 13.2103C5.09959 12.8464 4.87874 12.5159 4.60001 12.2379ZM18.571 19.4079C18.4942 19.9602 18.265 20.4802 17.9091 20.9095C17.5532 21.3388 17.0847 21.6604 16.5561 21.8382C16.0276 22.0161 15.46 22.043 14.9169 21.9161C14.3739 21.7892 13.877 21.5135 13.482 21.1199L11.762 19.3999C11.4844 19.1207 11.1542 18.8994 10.7904 18.7487C10.4267 18.598 10.0367 18.5209 9.64301 18.5219H6.88801L21.915 3.49989L18.571 19.4079Z" fill="white"/>
</g>
<defs>
<clipPath id="clip0_196_1663">
<rect width="24" height="24" fill="white"/>
</clipPath>
</defs>
</svg>
